<?xml version="1.0" standalone="no"?>
<!DOCTYPE svg PUBLIC "-//W3C//DTD SVG 20010904//EN"
 "http://www.w3.org/TR/2001/REC-SVG-20010904/DTD/svg10.dtd">
<svg version="1.0" xmlns="http://www.w3.org/2000/svg"
 width="392.000000pt" height="392.000000pt" viewBox="0 0 392.000000 392.000000"
 preserveAspectRatio="xMidYMid meet">
<metadata>
Created by potrace 1.11, written by Peter Selinger 2001-2013
</metadata>
<g transform="translate(0.000000,392.000000) scale(0.100000,-0.100000)"
fill="#000000" stroke="none">
<path d="M1870 3909 c-155 -43 -179 -53 -515 -222 -143 -72 -445 -223 -671
-337 -227 -113 -428 -218 -448 -233 -19 -15 -49 -47 -66 -72 l-30 -44 0 -1041
c0 -1145 -5 -1052 59 -1124 45 -49 110 -84 766 -412 783 -392 880 -432 1024
-422 66 5 187 41 264 78 22 11 47 20 54 20 7 0 13 3 13 8 0 4 15 13 32 20 108
44 1282 638 1323 669 27 21 62 56 77 78 l27 40 1 1044 0 1043 -36 49 c-19 27
-50 59 -67 71 -18 13 -316 165 -662 339 -347 174 -639 321 -650 327 -34 20
-148 69 -200 86 -127 44 -222 55 -295 35z m194 -148 c4 -5 -3 -7 -14 -4 -23 6
-26 13 -6 13 8 0 17 -4 20 -9z m-254 -15 c0 -2 -7 -7 -16 -10 -8 -3 -12 -2 -9
4 6 10 25 14 25 6z m375 -26 c3 -6 -1 -7 -9 -4 -18 7 -21 14 -7 14 6 0 13 -4
16 -10z m-475 -14 c0 -2 -7 -7 -16 -10 -8 -3 -12 -2 -9 4 6 10 25 14 25 6z
m1140 -362 c762 -379 752 -373 720 -432 -12 -22 -154 -97 -705 -372 l-690
-344 -88 0 -87 0 -748 374 c-670 337 -747 378 -750 400 -3 24 34 43 695 372
384 191 705 349 713 352 8 3 65 4 125 3 l110 -2 705 -351z m-1195 336 c-3 -5
-12 -10 -18 -10 -7 0 -6 4 3 10 19 12 23 12 15 0z m-40 -20 c-3 -5 -12 -10
-18 -10 -7 0 -6 4 3 10 19 12 23 12 15 0z m-40 -20 c-3 -5 -12 -10 -18 -10 -7
0 -6 4 3 10 19 12 23 12 15 0z m-35 -15 c0 -2 -10 -9 -22 -15 -22 -11 -22 -10
-4 4 21 17 26 19 26 11z m-50 -29 c0 -2 -7 -7 -16 -10 -8 -3 -12 -2 -9 4 6 10
25 14 25 6z m-40 -20 c0 -2 -7 -7 -16 -10 -8 -3 -12 -2 -9 4 6 10 25 14 25 6z
m1045 -6 c3 -6 -1 -7 -9 -4 -18 7 -21 14 -7 14 6 0 13 -4 16 -10z m-1085 -14
c0 -2 -7 -7 -16 -10 -8 -3 -12 -2 -9 4 6 10 25 14 25 6z m-40 -20 c0 -2 -7 -7
-16 -10 -8 -3 -12 -2 -9 4 6 10 25 14 25 6z m-40 -20 c0 -2 -7 -7 -16 -10 -8
-3 -12 -2 -9 4 6 10 25 14 25 6z m1331 -33 c13 -16 12 -17 -3 -4 -17 13 -22
21 -14 21 2 0 10 -8 17 -17z m-1471 -37 c0 -2 -7 -7 -16 -10 -8 -3 -12 -2 -9
4 6 10 25 14 25 6z m-340 -170 c0 -2 -7 -7 -16 -10 -8 -3 -12 -2 -9 4 6 10 25
14 25 6z m-40 -20 c0 -2 -7 -7 -16 -10 -8 -3 -12 -2 -9 4 6 10 25 14 25 6z
m-40 -20 c0 -2 -7 -7 -16 -10 -8 -3 -12 -2 -9 4 6 10 25 14 25 6z m2504 -65
c-2 -3 -12 3 -22 13 -16 17 -16 18 5 5 12 -7 20 -15 17 -18z m41 -19 c-3 -3
-11 0 -18 7 -9 10 -8 11 6 5 10 -3 15 -9 12 -12z m40 -20 c-3 -3 -11 0 -18 7
-9 10 -8 11 6 5 10 -3 15 -9 12 -12z m269 -153 c14 -17 26 -38 26 -47 -1 -9
-7 -3 -14 14 -8 17 -29 43 -47 58 -19 15 -24 23 -13 17 12 -6 34 -24 48 -42z
m-269 -520 c50 -44 57 -81 53 -261 -3 -174 -8 -188 -79 -236 -59 -41 -135 -17
-186 58 -22 31 -23 43 -23 199 0 157 1 168 24 205 30 50 59 65 123 66 44 0 58
-5 88 -31z m-805 -374 c16 -8 38 -28 49 -44 19 -27 21 -43 21 -215 l0 -186
-40 -40 c-37 -37 -44 -40 -96 -40 -64 0 -104 22 -132 73 -14 27 -17 59 -17
198 0 165 0 166 28 206 15 22 38 45 50 51 32 16 104 14 137 -3z m749 -641 c72
-15 124 -108 101 -179 -6 -19 -23 -46 -38 -59 -15 -14 -209 -116 -432 -228
-352 -176 -411 -203 -452 -203 -121 0 -185 143 -104 234 23 26 846 441 875
441 10 0 33 -3 50 -6z"/>
</g>
</svg>
